<?xml version="1.0" encoding="UTF-8"?>
<svg width="203px" height="62px" viewBox="0 0 203 62" version="1.1" xmlns="http://www.w3.org/2000/svg" xmlns:xlink="http://www.w3.org/1999/xlink">
    <!-- Generator: Sketch 58 (84663) - https://sketch.com -->
    <title>Logo</title>
    <desc>Created with Sketch.</desc>
    <g id="Symbols" stroke="none" stroke-width="1" fill="none" fill-rule="evenodd">
        <g id="footer-1280px-desktop-nl" transform="translate(-57.000000, -798.000000)" fill="#F81700">
            <path d="M150.793758,851.235714 L150.793758,859.764286 L147.928087,860 L147.928087,856.978571 L146.104478,856.978571 L146.104478,859.764286 L143,860 L143,851.45 L146.104478,851.696429 L146.104478,854.428571 L147.928087,854.428571 L147.928087,851.471429 L150.793758,851.235714 Z M166.815468,851 L166.815468,859.785714 L163.928087,860 L163.928087,851.214286 L166.815468,851 Z M162.625509,851 L162.625509,859.785714 L159.738128,860 L159.738128,851.214286 L162.625509,851 Z M191,851 L191,859.785714 L188.329715,859.892857 L188.438263,858.982143 L188.329715,858.982143 C187.873813,859.560714 187.233379,859.914286 186.527815,859.914286 C185.160109,859.914286 184.042062,858.864286 184.042062,856.925 C184.042062,854.910714 185.160109,853.796429 186.527815,853.796429 C187.526459,853.796429 188.112619,854.696429 188.112619,854.696429 L188.221167,854.696429 L188.112619,851.214286 L191,851 Z M174.848033,853.710714 L174.848033,859.678571 L172.080054,859.892857 L172.188602,858.982143 L172.080054,858.982143 C172.080054,858.982143 171.276798,859.914286 170.278155,859.914286 C168.910448,859.914286 167.792402,858.8 167.792402,856.785714 C167.792402,854.846429 168.910448,853.796429 170.278155,853.796429 C170.983718,853.796429 171.624152,854.15 172.080054,854.728571 L172.188602,854.728571 L172.080054,853.925 L174.848033,853.710714 Z M155.265943,853.796429 C157.230665,853.796429 158.761194,854.814286 158.761194,856.925 C158.761194,858.928571 157.132972,859.914286 155.265943,859.914286 C153.398915,859.914286 151.770692,858.928571 151.770692,856.925 C151.770692,854.814286 153.301221,853.796429 155.265943,853.796429 Z M180.796472,853.796429 C182.402985,853.796429 183.065129,854.45 183.065129,856.753571 L183.065129,859.785714 L180.34057,859.785714 L180.34057,856.753571 C180.34057,856.282143 180.134328,856.003571 179.667571,856.003571 C179.298507,856.003571 178.87517,856.089286 178.788331,856.110714 L178.788331,859.785714 L176.150611,859.785714 L176.150611,853.925 L178.820896,853.817857 L178.712347,854.728571 L178.820896,854.728571 C179.331072,854.203571 180.058345,853.796429 180.796472,853.796429 Z M187.667571,856.025 C187.14654,856.025 186.799186,856.346429 186.799186,856.882143 C186.799186,857.407143 187.189959,857.685714 187.667571,857.685714 C188.145183,857.685714 188.535957,857.407143 188.535957,856.882143 C188.535957,856.346429 188.188602,856.025 187.667571,856.025 Z M155.580733,856.025 C155.113976,856.025 154.788331,856.346429 154.788331,856.882143 C154.788331,857.407143 155.14654,857.685714 155.580733,857.685714 C156.014925,857.685714 156.373134,857.407143 156.373134,856.882143 C156.373134,856.346429 156.04749,856.025 155.580733,856.025 Z M171.41791,856.025 C170.896879,856.025 170.549525,856.346429 170.549525,856.882143 C170.549525,857.407143 170.940299,857.685714 171.41791,857.685714 C171.895522,857.685714 172.286296,857.407143 172.286296,856.882143 C172.286296,856.346429 171.938942,856.025 171.41791,856.025 Z M257.177991,812.870844 C253.969779,831.231788 253.262868,847.343323 253.235875,847.98044 L253.235056,848 C250.704258,847.705557 237.496889,845.976911 237.496889,845.976911 C237.349476,831.847194 239.025507,814.977511 239.059042,814.64153 L239.059552,814.636429 L257.177991,812.870844 Z M95.8169499,798 L113.97275,801.605049 C106.605835,823.236342 102.813105,845.780607 102.737987,846.229329 L102.736849,846.236139 L90.7320697,847.021498 L85.8209992,839.664714 L82.0513329,846.531118 L73.4691424,844.814249 C68.656499,829.228101 57.2314831,808.546097 57.003464,808.134015 L57,808.127758 L75.4286974,801.163385 L80.2650461,816.171398 L84.8788533,808.262667 L89.9382848,815.987773 L95.8169499,798 Z M223.764795,805.438129 C224.642217,805.419627 226.967801,805.456566 228.678825,806.596863 C230.390931,807.737159 231.042311,809.613027 231.339575,811.673055 C231.636838,813.733083 231.701814,816.231028 230.567448,819.431353 C229.465494,822.539719 226.809185,823.795027 226.658296,823.864222 L226.651587,823.867266 L226.651587,824.21685 C228.706981,824.985383 229.907529,826.176745 230.068549,826.343019 L230.087171,826.362534 C233.980832,830.323056 233.162681,836.514918 233.162681,836.514918 C232.49235,842.621125 229.22841,844.627618 226.09388,845.711167 C223.110538,846.742371 218.08863,846.202283 217.866908,846.17777 L217.859309,846.176922 L201.390166,844.681153 L201.390166,807.11187 L216.519188,805.910544 C222.710031,805.390533 223.700917,805.434262 223.764795,805.438129 Z M120.803428,802.461253 L137.917453,805.453326 L151.534167,843.537617 C147.692087,843.57395 136.998497,843.906547 136.64892,843.917442 L136.640141,843.917715 L135.350376,839.564782 L124.709543,839.564782 L123.482046,844.38347 L109.642248,845.082103 C113.139017,824.409548 120.803428,802.461253 120.803428,802.461253 Z M168.232529,808.409591 L168.232529,833.325332 L179.517703,833.325332 L179.517703,845.071455 L154.764175,845.071455 L154.764175,808.409591 L168.232529,808.409591 Z M198.313272,818.819181 L198.313272,844.911623 L184.84546,844.911623 L184.84546,818.819181 L198.313272,818.819181 Z M213.852943,829.329612 L213.840569,829.329981 L213.840569,836.098951 L216.55709,836.159502 L216.59575,836.159469 C216.898574,836.15733 218.902167,836.108587 219.818322,835.202775 C220.680897,834.349938 220.755739,833.302392 220.760588,833.043629 L220.760468,832.983747 C220.760468,832.983747 220.921824,831.475665 220.104215,830.54362 C219.231918,829.551616 218.08185,829.403324 217.176524,829.329981 C216.308919,829.259181 214.040474,829.324081 213.852943,829.329612 Z M130.302857,818.720379 L129.806876,818.720379 L127.202439,830.442411 L132.882387,830.442411 C132.882387,830.442411 131.046827,823.281565 130.302857,818.720379 Z M216.276795,814.628581 L216.265241,814.629795 L213.840569,814.910319 L213.840569,820.759022 C213.840569,820.759022 215.838027,820.661052 216.792085,820.391236 C217.747767,820.121419 218.491738,819.655664 218.838816,818.956497 C219.185893,818.257865 219.31043,817.166285 219.173981,816.369148 C219.037533,815.572547 218.519894,814.946723 217.75968,814.713845 C217.198218,814.542462 216.382996,814.617777 216.276795,814.628581 Z M198.437809,806.922506 L198.313272,815.235962 L184.84546,815.235962 L184.84546,807.854551 L198.437809,806.922506 Z M240.306445,804.106206 L260,798 C258.586572,804.264163 257.365473,810.599635 257.323062,810.820004 L257.321923,810.825924 L238.991772,812.934669 C239.483613,808.209453 240.270524,804.284213 240.305255,804.112091 L240.306445,804.106206 L260,798 Z" id="Logo"/>
        </g>
    </g>
</svg>